<svg width="24" height="24" viewBox="0 0 24 24" fill="none" xmlns="http://www.w3.org/2000/svg">
  <path d="M4.5 5.5C4.5 4.39543 5.39543 3.5 6.5 3.5H11.5C12.6046 3.5 13.5 4.39543 13.5 5.5V18.5C13.5 19.6046 12.6046 20.5 11.5 20.5H6.8C5.37452 20.5 4.5 19.6255 4.5 18.2V5.5Z" stroke="#0F172A" stroke-width="1.5" stroke-linecap="round" stroke-linejoin="round"/>
  <path d="M19.5 5.5C19.5 4.39543 18.6046 3.5 17.5 3.5H12.5C11.3954 3.5 10.5 4.39543 10.5 5.5V18.5C10.5 19.6046 11.3954 20.5 12.5 20.5H17.2C18.6255 20.5 19.5 19.6255 19.5 18.2V5.5Z" stroke="#0F172A" stroke-width="1.5" stroke-linecap="round" stroke-linejoin="round"/>
  <path d="M10.5 7.5H13.5" stroke="#0F172A" stroke-width="1.5" stroke-linecap="round"/>
  <path d="M10.5 10.5H13.5" stroke="#0F172A" stroke-width="1.5" stroke-linecap="round"/>
  <path d="M10.5 13.5H13.5" stroke="#0F172A" stroke-width="1.5" stroke-linecap="round"/>
</svg>
